<?xml version="1.0" encoding="UTF-8"?>
<!-- Generator: visioncortex VTracer 0.6.12 -->
<svg version="1.1" xmlns="http://www.w3.org/2000/svg" width="1790" height="2400">
<path d="M0 0 C3.538 1.869 6.155 4.221 9 7 C9.74 7.53 10.48 8.06 11.242 8.605 C11.822 9.066 12.402 9.526 13 10 C13 10.66 13 11.32 13 12 C13.66 12 14.32 12 15 12 C16.69 13.643 18.352 15.315 20 17 C20.99 17.825 21.98 18.65 23 19.5 C25.842 21.869 28.386 24.386 31 27 C32.097 27.904 33.201 28.8 34.312 29.688 C35.199 30.451 36.086 31.214 37 32 C37 32.66 37 33.32 37 34 C37.66 34 38.32 34 39 34 C40.133 35.098 41.258 36.206 42.352 37.344 C44.291 39.292 46.322 41.109 48.375 42.938 C52.851 46.938 57.246 51.018 61.625 55.125 C66.089 59.311 70.586 63.428 75.23 67.414 C77.991 69.888 80.563 72.541 83.141 75.203 C85 77 85 77 87.234 78.609 C87.817 79.068 88.4 79.527 89 80 C89 80.66 89 81.32 89 82 C89.583 82.254 90.165 82.508 90.766 82.77 C93.242 84.133 94.805 85.642 96.75 87.688 C101.635 92.7 106.852 97.239 112.25 101.688 C114.644 103.701 116.912 105.671 119 108 C119 108.66 119 109.32 119 110 C119.556 110.227 120.111 110.454 120.684 110.688 C123.665 112.377 125.687 114.535 128.062 117 C130.655 119.682 132.892 121.928 136 124 C136 124.66 136 125.32 136 126 C136.583 126.254 137.165 126.508 137.766 126.77 C140.242 128.133 141.805 129.642 143.75 131.688 C146.39 134.401 149.059 136.979 151.938 139.438 C155.748 142.711 159.251 146.234 162.777 149.809 C165.424 152.418 168.205 154.826 171.023 157.246 C175.043 160.813 178.758 164.7 182.508 168.547 C184.596 170.673 186.5 172.334 189 174 C189 174.66 189 175.32 189 176 C189.556 176.227 190.111 176.454 190.684 176.688 C193.665 178.377 195.687 180.535 198.062 183 C200.655 185.682 202.892 187.928 206 190 C206 190.66 206 191.32 206 192 C206.572 192.245 207.144 192.491 207.733 192.743 C210.387 194.215 212.145 195.936 214.266 198.105 C215.074 198.925 215.882 199.744 216.715 200.588 C217.551 201.446 218.388 202.304 219.25 203.188 C224.523 208.572 229.766 213.829 235.593 218.618 C236.057 219.074 236.522 219.53 237 220 C237 220.66 237 221.32 237 222 C237.539 222.212 238.078 222.425 238.633 222.643 C241.875 224.502 244.28 227.054 246.867 229.707 C247.424 230.269 247.982 230.832 248.556 231.411 C250.334 233.207 252.105 235.009 253.875 236.812 C255.639 238.604 257.404 240.394 259.173 242.182 C260.271 243.292 261.366 244.405 262.459 245.521 C265.811 248.916 269.312 251.973 273 255 C274.224 256.3 275.417 257.631 276.562 259 C279.229 262.171 282.06 265.08 285 268 C285.948 268.942 286.896 269.885 287.843 270.827 C288.341 271.322 288.838 271.816 289.351 272.325 C291.603 274.564 293.852 276.805 296.101 279.046 C297.279 280.219 298.458 281.391 299.638 282.563 C311.568 294.408 311.568 294.408 316.588 300.372 C318.147 302.17 319.801 303.834 321.5 305.5 C324.449 308.403 327.161 311.443 329.859 314.578 C332.085 317.096 334.37 319.547 336.67 321.996 C341.93 327.599 346.952 333.286 351.758 339.289 C354.239 342.289 356.849 345.151 359.5 348 C364.583 353.478 369.341 359.159 374 365 C374.884 366.08 375.768 367.159 376.652 368.238 C383.538 376.716 389.502 385.566 395 395 C395.368 395.631 395.735 396.261 396.114 396.911 C434.414 463.533 423.673 567.255 421.395 641.536 C418.956 721.09 417.638 800.797 420.714 880.347 C421.015 888.214 421.268 896.083 421.503 903.952 C421.547 905.417 421.592 906.881 421.637 908.345 C423.133 956.808 420.774 1012.059 387.094 1050.156 C385.5 1051.813 385.5 1051.813 383 1054 C382.34 1054 381.68 1054 381 1054 C381 1054.66 381 1055.32 381 1056 C345.634 1087.164 296.071 1094.868 251.032 1101.69 C249.133 1101.98 247.236 1102.278 245.339 1102.577 C223.267 1106.045 201.039 1107.805 178.782 1109.609 C175.014 1109.915 171.249 1110.243 167.484 1110.578 C144.768 1112.464 121.78 1112.275 99 1112 C97.904 1111.987 96.807 1111.975 95.678 1111.962 C38.706 1111.082 -30.811 1105.312 -80.746 1075.914 C-83.394 1074.357 -86.055 1072.848 -88.75 1071.375 C-92.895 1069.096 -96.916 1066.633 -100.934 1064.137 C-103 1063 -103 1063 -105 1063 C-105.244 1063.55 -105.487 1064.101 -105.738 1064.668 C-115.485 1082.683 -133.89 1094.809 -152 1103 C-152.871 1103.41 -153.743 1103.82 -154.641 1104.242 C-177.661 1114.343 -204.206 1113.305 -228.767 1113.261 C-232.575 1113.257 -236.383 1113.264 -240.19 1113.269 C-247.616 1113.278 -255.042 1113.276 -262.467 1113.271 C-268.503 1113.266 -274.539 1113.265 -280.575 1113.268 C-281.007 1113.268 -281.007 1113.268 -283.191 1113.269 C-284.945 1113.269 -286.699 1113.27 -288.453 1113.271 C-304.839 1113.276 -321.225 1113.27 -337.611 1113.259 C-351.656 1113.25 -365.701 1113.252 -379.747 1113.261 C-396.098 1113.271 -412.449 1113.276 -428.8 1113.27 C-430.544 1113.269 -432.287 1113.268 -434.031 1113.268 C-434.889 1113.267 -435.746 1113.267 -436.63 1113.267 C-442.661 1113.265 -448.693 1113.268 -454.724 1113.273 C-462.069 1113.278 -469.414 1113.277 -476.759 1113.266 C-480.503 1113.261 -484.247 1113.259 -487.991 1113.265 C-492.053 1113.272 -496.115 1113.264 -500.176 1113.254 C-501.354 1113.258 -502.531 1113.263 -503.744 1113.267 C-512.691 1113.225 -520.892 1113.034 -527.625 1106.566 C-530.882 1102.856 -531.518 1099.023 -531.379 1094.121 C-530.462 1088.991 -527.47 1085.327 -523.69 1081.915 C-518.762 1078.73 -512.934 1079.455 -507.278 1079.501 C-505.982 1079.496 -504.685 1079.49 -503.35 1079.485 C-499.757 1079.47 -496.165 1079.481 -492.572 1079.495 C-488.695 1079.506 -484.817 1079.494 -480.939 1079.485 C-474.218 1079.472 -467.497 1079.473 -460.775 1079.484 C-451.033 1079.499 -441.292 1079.489 -431.55 1079.472 C-415.712 1079.446 -399.875 1079.435 -384.037 1079.436 C-383.089 1079.436 -382.141 1079.436 -381.165 1079.436 C-377.326 1079.436 -373.487 1079.437 -369.648 1079.437 C-359.115 1079.438 -348.582 1079.437 -338.049 1079.434 C-337.107 1079.434 -336.165 1079.433 -335.195 1079.433 C-319.435 1079.429 -303.676 1079.412 -287.916 1079.389 C-278.213 1079.375 -268.511 1079.372 -258.808 1079.383 C-252.14 1079.391 -245.473 1079.387 -238.806 1079.376 C-234.971 1079.37 -231.137 1079.369 -227.302 1079.381 C-196.436 1079.473 -165.4 1079.034 -142.043 1056.176 C-137.864 1051.916 -133.695 1047.355 -131 1042 C-131.189 1038.61 -132.687 1036.991 -135 1034.625 C-168.036 998.069 -171.106 943.535 -171.601 896.952 C-171.633 894.115 -171.673 891.277 -171.712 888.439 C-172.047 864.64 -172.194 840.84 -171.738 817.042 C-171.704 815.173 -171.676 813.305 -171.654 811.437 C-171.527 801.096 -171.07 790.923 -169.645 780.672 C-169.529 779.832 -169.414 778.991 -169.296 778.126 C-167.546 766.631 -163.216 754.509 -155 746 C-154.34 746 -153.68 746 -153 746 C-153 745.34 -153 744.68 -153 744 C-142.431 734.529 -129.407 730.846 -115.569 730.86 C-114.615 730.857 -113.661 730.854 -112.678 730.851 C-109.478 730.842 -106.278 730.84 -103.079 730.839 C-100.786 730.834 -98.493 730.829 -96.199 730.824 C-89.968 730.811 -83.737 730.804 -77.505 730.8 C-73.612 730.797 -69.719 730.793 -65.827 730.788 C-55.042 730.776 -44.258 730.766 -33.474 730.762 C-32.785 730.762 -32.095 730.762 -31.384 730.762 C-30.693 730.762 -30.002 730.761 -29.289 730.761 C-27.888 730.761 -26.488 730.76 -25.087 730.76 C-24.392 730.76 -23.697 730.759 -22.981 730.759 C-11.722 730.755 -0.463 730.738 10.796 730.714 C22.363 730.691 33.93 730.678 45.497 730.677 C51.988 730.676 58.48 730.67 64.971 730.652 C71.077 730.636 77.183 730.634 83.289 730.642 C85.528 730.643 87.768 730.639 90.008 730.629 C93.068 730.616 96.128 730.622 99.188 730.633 C100.072 730.624 100.956 730.616 101.866 730.608 C107.82 730.655 113.807 731.261 118.528 735.31 C122.946 740.237 124.247 745.454 124.262 751.923 C124.269 753.092 124.277 754.26 124.284 755.464 C124.282 756.738 124.28 758.013 124.278 759.326 C124.283 760.7 124.289 762.075 124.296 763.449 C124.312 767.221 124.315 770.993 124.317 774.765 C124.32 778.834 124.336 782.904 124.349 786.973 C124.372 794.022 124.387 801.071 124.397 808.119 C124.411 818.311 124.437 828.502 124.465 838.694 C124.51 855.228 124.547 871.763 124.578 888.298 C124.608 904.36 124.643 920.422 124.683 936.484 C124.685 937.474 124.688 938.464 124.69 939.484 C124.702 944.451 124.715 949.418 124.727 954.385 C124.831 995.59 124.92 1036.795 125 1078 C129.883 1077.874 134.766 1077.745 139.65 1077.614 C141.305 1077.57 142.96 1077.526 144.615 1077.484 C193.864 1076.212 243.956 1071.129 292 1060 C292.973 1059.777 293.945 1059.555 294.947 1059.325 C316.35 1054.343 339.246 1046.828 356.266 1032.348 C358 1031 358 1031 361 1030 C362.188 1027.937 362.188 1027.937 363 1026 C363.66 1026 364.32 1026 365 1026 C365.131 1025.72 365.131 1025.72 365.797 1024.301 C367.112 1021.785 368.651 1019.532 370.25 1017.188 C387.985 989.224 387.186 954.114 387.13 922.238 C387.125 918.72 387.13 915.202 387.137 911.684 C387.14 897.713 386.916 883.762 386.57 869.797 C385.886 841.963 385.847 814.135 385.871 786.293 C385.876 780.285 385.871 774.276 385.866 768.268 C385.846 740.516 385.985 712.774 386.473 685.027 C386.483 684.42 386.483 684.42 386.537 681.349 C386.765 668.665 387.049 655.989 387.562 643.312 C394.465 459.391 394.465 459.391 364 410 C363.733 409.553 363.733 409.553 362.383 407.293 C355.093 395.381 345.96 384.838 336.84 374.309 C334.31 371.38 331.864 368.39 329.438 365.375 C325.342 360.328 320.994 355.558 316.578 350.793 C312.379 346.243 308.302 341.6 304.375 336.812 C301.487 333.392 298.356 330.302 295.129 327.203 C294.488 326.579 293.848 325.955 293.188 325.312 C292.583 324.731 291.978 324.15 291.355 323.551 C290 322 290 322 290 320 C289.443 319.781 288.886 319.562 288.312 319.336 C285.24 317.561 283.346 315.285 281 312.625 C276.425 307.489 271.669 302.6 266.709 297.834 C265.437 296.592 264.213 295.3 263 294 C263 293.34 263 292.68 263 292 C262.711 291.876 262.711 291.876 261.25 291.25 C258.671 289.817 256.939 288.216 255 286 C255 285.34 255 284.68 255 284 C254.691 283.876 254.691 283.876 253.125 283.25 C250.596 281.763 250.282 280.563 249 278 C247.667 277.332 246.334 276.665 245 276 C243.356 274.567 243.356 274.567 241.758 272.918 C241.166 272.315 240.574 271.713 239.965 271.092 C239.661 270.778 239.661 270.778 238.125 269.188 C231.334 262.2 231.334 262.2 227.555 259.176 C226.712 258.458 225.869 257.74 225 257 C225 256.34 225 255.68 225 255 C224.01 254.67 223.02 254.34 222 254 C222 253.34 222 252.68 222 252 C221.722 251.887 221.722 251.887 220.312 251.312 C217.337 249.624 215.398 247.452 213 245 C211.876 243.874 210.751 242.749 209.625 241.625 C207.208 239.208 204.792 236.792 202.375 234.375 C202.087 234.087 202.087 234.087 200.63 232.632 C199.181 231.181 197.74 229.722 196.301 228.262 C193.773 225.777 191.11 223.558 188.355 221.332 C187.908 220.892 187.461 220.453 187 220 C187 219.34 187 218.68 187 218 C186.722 217.887 186.722 217.887 185.312 217.312 C183.015 216.009 181.445 214.538 179.637 212.633 C176.583 209.586 173.267 206.816 170.012 203.988 C169.348 203.332 168.684 202.676 168 202 C168 201.34 168 200.68 168 200 C167.258 199.753 166.515 199.505 165.75 199.25 C162.77 197.895 161.101 196.49 159 194 C159 193.34 159 192.68 159 192 C157.68 191.34 156.36 190.68 155 190 C155 189.34 155 188.68 155 188 C154.417 187.746 153.835 187.492 153.234 187.23 C150.758 185.867 149.195 184.358 147.25 182.312 C144.65 179.641 142.028 177.102 139.188 174.688 C135.798 171.777 132.636 168.678 129.5 165.5 C124.272 160.208 118.894 155.231 113 150.688 C112.34 150.131 111.68 149.574 111 149 C111 148.34 111 147.68 111 147 C110.34 147 109.68 147 109 147 C109 146.34 109 145.68 109 145 C108.733 144.898 108.733 144.898 107.383 144.379 C104.001 142.422 101.57 139.74 98.875 136.938 C93.24 131.12 93.24 131.12 91 130 C91 129.34 91 128.68 91 128 C90.464 127.773 89.928 127.546 89.375 127.312 C84.689 124.723 80.567 120.979 77 117 C77 116.34 77 115.68 77 115 C76.421 114.743 75.842 114.487 75.246 114.222 C72.789 112.885 71.08 111.382 69.066 109.445 C68.701 109.097 68.701 109.097 66.85 107.332 C66.472 106.968 66.472 106.968 64.562 105.125 C63.065 103.688 61.567 102.253 60.066 100.82 C59.365 100.15 58.664 99.48 57.942 98.79 C56.35 97.323 54.668 95.954 52.965 94.617 C52.316 94.084 51.668 93.55 51 93 C51 92.34 51 91.68 51 91 C50.421 90.738 49.842 90.477 49.246 90.207 C43.369 87.049 38.675 81.675 34 77 C32.506 75.66 31.006 74.327 29.5 73 C26.213 70.101 23.099 67.099 20 64 C15.378 59.75 10.708 55.571 5.875 51.562 C4.926 50.717 3.977 49.871 3 49 C3 48.34 3 47.68 3 47 C2.443 46.753 1.886 46.505 1.312 46.25 C-1 45 -1 45 -3.562 42.938 C-6 41 -6 41 -9 40 C-9 40.66 -9 41.32 -9 42 C-9.66 42 -10.32 42 -11 42 C-11 42.66 -11 43.32 -11 44 C-11.66 44 -12.32 44 -13 44 C-13.33 44.99 -13.66 45.98 -14 47 C-16.25 49.493 -18.148 51.586 -21.188 53.062 C-23.529 54.273 -24.041 55.602 -25 58 C-25.66 58 -26.32 58 -27 58 C-27.265 58.591 -27.53 59.182 -27.803 59.79 C-29.038 62.07 -30.306 63.542 -32.145 65.356 C-32.783 65.991 -33.421 66.626 -34.078 67.279 C-34.768 67.955 -35.458 68.632 -36.168 69.328 C-36.881 70.036 -37.594 70.744 -38.329 71.473 C-40.61 73.737 -42.898 75.994 -45.188 78.25 C-47.458 80.493 -49.727 82.737 -51.993 84.984 C-53.401 86.381 -54.812 87.774 -56.227 89.165 C-60.167 93.065 -63.905 97.077 -67.518 101.282 C-69.258 103.299 -71.008 105.229 -73 107 C-73.66 107 -74.32 107 -75 107 C-75.66 108.32 -76.32 109.64 -77 111 C-77.66 111 -78.32 111 -79 111 C-79 111.66 -79 112.32 -79 113 C-79.66 113 -80.32 113 -81 113 C-81.134 113.299 -81.134 113.299 -81.812 114.812 C-82.999 116.998 -84.096 118.413 -86 120 C-86.66 120 -87.32 120 -88 120 C-88.121 120.283 -88.121 120.283 -88.732 121.716 C-90.251 124.452 -92.072 126.331 -94.281 128.547 C-95.123 129.391 -95.965 130.236 -96.832 131.105 C-97.712 131.978 -98.593 132.851 -99.5 133.75 C-100.38 134.638 -101.261 135.526 -102.168 136.441 C-103.01 137.281 -103.851 138.12 -104.719 138.984 C-105.492 139.755 -106.264 140.525 -107.061 141.319 C-109 143 -109 143 -111 143 C-111.247 143.619 -111.495 144.237 -111.75 144.875 C-113.206 147.351 -114.378 147.951 -117 149 C-117 149.66 -117 150.32 -117 151 C-118.875 153.125 -118.875 153.125 -121 155 C-121.66 155 -122.32 155 -123 155 C-123.231 155.558 -123.461 156.116 -123.699 156.691 C-125.345 159.613 -127.411 161.601 -129.812 163.938 C-130.665 164.772 -131.517 165.606 -132.395 166.465 C-132.824 166.883 -132.824 166.883 -135 169 C-135.87 169.909 -136.74 170.818 -137.637 171.754 C-140 174 -140 174 -143 175 C-143.685 176.324 -144.349 177.659 -145 179 C-147 181.25 -147 181.25 -149 183 C-149.66 183 -150.32 183 -151 183 C-151.242 183.567 -151.483 184.134 -151.732 184.718 C-153.252 187.453 -155.07 189.312 -157.289 191.52 C-158.149 192.377 -159.009 193.235 -159.895 194.119 C-160.796 195.008 -161.697 195.897 -162.625 196.812 C-163.503 197.69 -164.381 198.567 -165.285 199.471 C-169.035 203.196 -172.784 206.873 -176.812 210.297 C-183.666 216.183 -189.855 222.834 -196.18 229.276 C-197.915 231.041 -199.656 232.8 -201.398 234.559 C-201.665 234.832 -201.665 234.832 -203.014 236.215 C-204.306 237.515 -205.648 238.763 -207 240 C-207.66 240 -208.32 240 -209 240 C-209.257 240.596 -209.513 241.191 -209.777 241.805 C-211.11 244.197 -212.434 245.427 -214.562 247.125 C-217.903 249.806 -217.903 249.806 -219 252 C-219.66 252 -220.32 252 -221 252 C-221.33 252.99 -221.66 253.98 -222 255 C-223.391 256.367 -223.391 256.367 -225.25 257.875 C-230.001 261.874 -234.299 266.267 -238.606 270.732 C-240.035 272.191 -241.514 273.6 -243 275 C-243.66 275 -244.32 275 -245 275 C-245.268 275.598 -245.536 276.196 -245.812 276.812 C-246.999 278.998 -248.096 280.413 -250 282 C-250.66 282 -251.32 282 -252 282 C-252.113 282.278 -252.113 282.278 -252.688 283.688 C-254.376 286.662 -256.467 288.72 -259 291 C-259.66 291 -260.32 291 -261 291 C-261 291.66 -261 292.32 -261 293 C-262.539 294.516 -262.539 294.516 -264.625 296.25 C-267.34 298.547 -269.913 300.872 -272.375 303.438 C-275 306 -275 306 -277 306 C-277.66 307.32 -278.32 308.64 -279 310 C-279.66 310 -280.32 310 -281 310 C-281.66 311.32 -282.32 312.64 -283 314 C-283.66 314 -284.32 314 -285 314 C-285.124 314.289 -285.124 314.289 -285.75 315.75 C-287.183 318.329 -288.784 320.061 -291 322 C-291.66 322 -292.32 322 -293 322 C-293 322.66 -293 323.32 -293 324 C-294.258 325.234 -294.258 325.234 -296.125 326.75 C-302.24 331.935 -307.783 337.702 -313.414 343.399 C-314.857 344.856 -316.307 346.305 -317.758 347.754 C-319.421 349.42 -321.061 351.11 -322.688 352.812 C-325 355 -325 355 -327 355 C-327 355.66 -327 356.32 -327 357 C-328.434 358.445 -328.434 358.445 -330.438 360.125 C-331.165 360.744 -331.892 361.362 -332.641 362 C-333.419 362.66 -334.198 363.32 -335 364 C-341.703 369.859 -348.062 375.708 -353.668 382.645 C-354.108 383.092 -354.547 383.539 -355 384 C-355.66 384 -356.32 384 -357 384 C-357.66 385.32 -358.32 386.64 -359 388 C-359.66 388 -360.32 388 -361 388 C-361.259 388.585 -361.518 389.17 -361.785 389.773 C-363.089 392.164 -364.525 393.693 -366.438 395.625 C-378.421 408.85 -388.663 427.524 -392 445 C-392.242 446.146 -392.485 447.292 -392.734 448.473 C-397.78 474.192 -398.974 500.853 -400 527 C-400.033 527.832 -400.065 528.664 -400.099 529.522 C-401.221 559.2 -400.978 588.865 -400.628 618.554 C-400.496 629.814 -400.381 641.074 -400.269 652.334 C-400.257 653.525 -400.246 654.715 -400.233 655.942 C-399.943 685.531 -399.803 715.121 -399.684 744.711 C-399.681 745.378 -399.678 746.045 -399.675 746.732 C-399.609 763.117 -399.548 779.501 -399.49 795.885 C-399.453 806.273 -399.414 816.66 -399.372 827.047 C-399.367 828.435 -399.361 829.824 -399.356 831.212 C-399.353 831.898 -399.35 832.584 -399.348 833.292 C-399.345 833.977 -399.342 834.663 -399.339 835.37 C-399.338 835.712 -399.338 835.712 -399.331 837.446 C-399.229 863.201 -399.138 888.956 -399.064 914.712 C-399.057 917.139 -399.05 919.567 -399.043 921.994 C-399.039 923.174 -399.036 924.355 -399.032 925.571 C-399.006 934.451 -398.972 943.332 -398.937 952.212 C-398.907 959.937 -398.884 967.662 -398.867 975.386 C-398.858 979.676 -398.845 983.966 -398.824 988.256 C-398.805 992.116 -398.795 995.975 -398.793 999.835 C-398.789 1001.848 -398.776 1003.862 -398.762 1005.876 C-398.779 1022.272 -398.779 1022.272 -402.75 1028.938 C-407.351 1033.155 -411.544 1034.586 -417.691 1034.348 C-423.226 1033.514 -426.93 1031.316 -430.438 1027 C-432.663 1022.726 -433.125 1019.42 -433.139 1014.624 C-433.144 1013.525 -433.15 1012.427 -433.155 1011.295 C-433.156 1010.088 -433.157 1008.88 -433.158 1007.637 C-433.163 1006.352 -433.168 1005.068 -433.173 1003.744 C-433.187 1000.17 -433.194 996.597 -433.201 993.023 C-433.209 989.161 -433.222 985.3 -433.235 981.439 C-433.26 973.828 -433.279 966.217 -433.297 958.606 C-433.318 949.589 -433.345 940.572 -433.371 931.555 C-433.419 915.266 -433.462 898.976 -433.503 882.687 C-433.541 867.255 -433.582 851.823 -433.628 836.391 C-433.633 834.513 -433.639 832.636 -433.644 830.758 C-433.647 829.83 -433.65 828.902 -433.652 827.946 C-433.655 827.018 -433.658 826.091 -433.661 825.135 C-433.662 824.672 -433.662 824.672 -433.669 822.327 C-433.792 780.164 -433.889 738.001 -433.968 695.838 C-433.985 686.426 -434.004 677.014 -434.025 667.601 C-434.026 667.13 -434.026 667.13 -434.031 664.745 C-434.033 663.803 -434.036 662.86 -434.038 661.889 C-434.079 643.393 -434.113 624.897 -434.133 606.4 C-434.142 597.809 -434.155 589.219 -434.176 580.628 C-434.194 573.434 -434.205 566.241 -434.206 559.047 C-434.207 555.419 -434.211 551.792 -434.225 548.164 C-434.458 481.78 -432.02 413.301 -382.843 363.711 C-380.714 361.591 -378.571 359.485 -376.42 357.387 C-372.854 353.903 -369.359 350.348 -365.863 346.793 C-364.346 345.258 -362.83 343.723 -361.312 342.188 C-360.541 341.399 -359.769 340.611 -358.975 339.799 C-358.237 339.054 -357.499 338.31 -356.738 337.543 C-356.068 336.863 -355.398 336.182 -354.708 335.481 C-353 334 -353 334 -351 334 C-351 333.34 -351 332.68 -351 332 C-349.632 330.658 -349.632 330.658 -347.68 329.059 C-341.654 323.937 -336.206 318.238 -330.684 312.588 C-329.296 311.17 -327.902 309.759 -326.508 308.348 C-325.689 307.512 -324.871 306.677 -324.028 305.817 C-322 304 -322 304 -320 304 C-319.67 303.01 -319.34 302.02 -319 301 C-317.434 299.457 -317.434 299.457 -315.438 297.812 C-311.051 294.094 -307.027 290.099 -303 286 C-302.238 285.239 -301.476 284.477 -300.691 283.693 C-298.112 281.112 -295.549 278.517 -292.988 275.918 C-291.579 274.495 -290.17 273.072 -288.76 271.651 C-287.788 270.668 -286.817 269.684 -285.848 268.698 C-284.441 267.266 -283.027 265.842 -281.613 264.418 C-280.776 263.57 -279.938 262.722 -279.075 261.848 C-277 260 -277 260 -275 260 C-274.74 259.402 -274.48 258.805 -274.212 258.189 C-272.906 255.831 -271.682 254.661 -269.601 252.97 C-263.885 248.126 -258.667 242.791 -253.387 237.484 C-252.285 236.38 -251.182 235.277 -250.08 234.173 C-247.2 231.29 -244.323 228.403 -241.447 225.516 C-238.516 222.574 -235.581 219.635 -232.646 216.695 C-227.497 211.536 -222.35 206.375 -217.205 201.212 C-216.477 200.482 -215.75 199.752 -215 199 C-214.724 198.703 -214.724 198.703 -213.325 197.199 C-212 196 -212 196 -210 196 C-209.34 194.68 -208.68 193.36 -208 192 C-207.34 192 -206.68 192 -206 192 C-205.67 191.01 -205.34 190.02 -205 189 C-203.548 187.567 -203.548 187.567 -201.641 186.008 C-196.048 181.257 -190.918 176.058 -185.738 170.867 C-184.625 169.756 -183.512 168.645 -182.399 167.534 C-179.397 164.536 -176.398 161.535 -173.399 158.534 C-170.249 155.381 -167.097 152.231 -163.944 149.08 C-158.653 143.79 -153.363 138.498 -148.075 133.205 C-141.976 127.101 -135.874 121 -129.769 114.901 C-124.512 109.649 -119.257 104.394 -114.003 99.138 C-110.872 96.006 -107.741 92.874 -104.608 89.744 C-101.661 86.801 -98.717 83.855 -95.775 80.907 C-94.7 79.83 -93.624 78.755 -92.548 77.68 C-87.33 72.473 -82.19 67.273 -77.53 61.549 C-75.829 59.827 -74.161 59.052 -72 58 C-70.75 55.875 -70.75 55.875 -70 54 C-69.34 54 -68.68 54 -68 54 C-67.876 53.691 -67.876 53.691 -67.25 52.125 C-65.763 49.596 -64.563 49.282 -62 48 C-61.7 47.395 -61.4 46.791 -61.091 46.167 C-59.867 43.736 -58.477 42.236 -56.548 40.321 C-55.843 39.616 -55.139 38.912 -54.413 38.186 C-53.651 37.435 -52.89 36.684 -52.105 35.91 C-51.321 35.129 -50.537 34.347 -49.729 33.542 C-47.22 31.044 -44.704 28.553 -42.188 26.062 C-40.504 24.389 -38.821 22.715 -37.139 21.041 C-33.371 17.293 -29.598 13.549 -25.821 9.81 C-24.249 8.247 -22.689 6.674 -21.131 5.097 C-14.939 -0.996 -8.362 -1.326 0 0 Z M-131.609 769.895 C-138.08 780.774 -138.095 792.462 -138.316 804.824 C-138.337 805.832 -138.358 806.839 -138.38 807.877 C-138.445 811.147 -138.505 814.417 -138.562 817.688 C-138.583 818.818 -138.604 819.949 -138.626 821.114 C-139.014 842.412 -139.21 863.7 -139 885 C-138.991 885.934 -138.983 886.868 -138.974 887.83 C-138.234 965.002 -138.234 965.002 -122 995 C-121.386 996.158 -120.773 997.315 -120.141 998.508 C-115.449 1006.989 -115.449 1006.989 -111 1009 C-107.876 1001.824 -105.718 994.691 -104 987.062 C-103.746 985.942 -103.492 984.822 -103.23 983.668 C-101.434 975.507 -99.944 967.322 -98.688 959.062 C-98.528 958.036 -98.369 957.009 -98.205 955.951 C-95.325 935.792 -95.836 915.347 -95.871 895.034 C-95.875 892.604 -95.878 890.173 -95.88 887.743 C-95.902 866.054 -96.009 844.366 -96.319 822.678 C-96.356 820.086 -96.39 817.494 -96.421 814.902 C-96.92 775.205 -96.92 775.205 -106.203 765.758 C-109.802 763.496 -112.21 763.466 -116.438 763.5 C-117.715 763.49 -118.992 763.479 -120.309 763.469 C-125.277 764.184 -128.365 766.075 -131.609 769.895 Z M-69 764 C-68.405 768.756 -67.78 773.37 -66.961 778.071 C-65.833 785.349 -65.669 792.516 -65.621 799.871 C-65.605 801.283 -65.588 802.695 -65.57 804.106 C-65.524 807.805 -65.489 811.504 -65.457 815.203 C-65.405 821.036 -65.339 826.87 -65.271 832.703 C-65.254 834.149 -65.238 835.594 -65.222 837.04 C-65.09 848.686 -64.766 860.315 -64.349 871.954 C-60.107 990.589 -60.107 990.589 -84.836 1028.84 C-86 1031 -86 1031 -85.469 1033.102 C-83.702 1035.386 -81.896 1036.76 -79.5 1038.375 C-78.706 1038.919 -77.912 1039.463 -77.094 1040.023 C-76.073 1040.676 -75.052 1041.328 -74 1042 C-73.286 1042.457 -72.572 1042.914 -71.837 1043.385 C-65.567 1047.287 -59.148 1050.289 -52.312 1053.062 C-51.782 1053.28 -51.782 1053.28 -49.095 1054.378 C-17.6 1067.133 15.768 1072.816 49.438 1076.312 C50.251 1076.4 51.065 1076.487 51.903 1076.577 C65.051 1077.968 77.677 1078 91 1078 C91 974.38 91 870.76 91 764 C38.2 764 -14.6 764 -69 764 Z " fill="#1C5086" transform="translate(904,673)"/>
<path d="M0 0 C18.953 14.439 31.986 34.402 35.443 58.252 C38.142 81.07 33.331 101.951 20.877 121.35 C20.44 122.033 20.003 122.716 19.553 123.42 C8.065 139.91 -8.176 151.168 -27.123 157.35 C-27.52 157.484 -27.52 157.484 -29.529 158.163 C-37.149 160.517 -44.369 160.853 -52.311 160.787 C-53.592 160.78 -54.873 160.772 -56.194 160.764 C-65.795 160.597 -74.088 159.644 -83.123 156.35 C-84.268 155.96 -85.412 155.571 -86.592 155.17 C-108.257 146.924 -125.477 130.032 -135.302 109.216 C-137.416 104.408 -138.901 99.448 -140.123 94.35 C-140.298 93.621 -140.473 92.893 -140.654 92.143 C-145.761 69.176 -141.766 46.479 -130.123 26.35 C-129.64 25.5 -129.156 24.651 -128.658 23.775 C-116.915 4.816 -97.74 -9.187 -76.169 -14.573 C-49.161 -20.802 -22.538 -16.614 0 0 Z " fill="#F69615" transform="translate(1260.123046875,631.650390625)"/>
</svg>
